<?xml version="1.0" encoding="utf-8"?>
<!-- Svg Vector Icons : http://www.onlinewebfonts.com/icon -->
<!DOCTYPE svg PUBLIC "-//W3C//DTD SVG 1.1//EN" "http://www.w3.org/Graphics/SVG/1.1/DTD/svg11.dtd">
<svg version="1.1" xmlns="http://www.w3.org/2000/svg" xmlns:xlink="http://www.w3.org/1999/xlink" x="0px" y="0px" viewBox="0 0 256 256" enable-background="new 0 0 256 256" xml:space="preserve">
<metadata> Svg Vector Icons : http://www.onlinewebfonts.com/icon </metadata>
<g><g><g><path fill="#000000" d="M116.6,36.5c-18.3,2-36.7,10.2-50.7,22.4c-4.1,3.6-10.3,10.1-11.3,11.8c-0.4,0.7,8.3,0.8,72.6,0.8c72.5,0,73,0,72.5-1c-1-1.8-9.2-10.1-13.2-13.3c-14.2-11.5-29.7-18.1-47.8-20.5C132.5,35.9,123,35.8,116.6,36.5z"/><path fill="#000000" d="M10.2,85.1c0.2,0.5,3.1,10.5,6.5,22.2l6.2,21.4l-6.5,23.6c-3.5,13-6.4,24-6.4,24.3c0,0.5,24,0.7,118,0.7c99.4,0,118-0.1,118-0.7c0-0.4-2.9-11.3-6.4-24.3l-6.4-23.5l6.2-21.4c3.4-11.8,6.3-21.8,6.5-22.3c0.3-0.8-5.6-0.9-117.8-0.9C15.8,84.3,9.9,84.3,10.2,85.1z M81.9,119.2c4.8,7.5,9.8,15.7,11.2,18.3l2.6,4.8l-0.3-18.4l-0.3-18.3h2.9h2.8v22.6v22.6h-3h-3l-2.6-4.2c-9.5-15-15.8-25.1-17.9-29l-2.4-4.5l0.3,18.9l0.3,18.9h-2.8H67v-22.6v-22.6h3.2h3.2L81.9,119.2z M136.1,108.2v2.5h-9.4h-9.4v7.1v7.1h8.9h8.9v2.5v2.5h-8.9h-8.9v8.1v8.1h9.9h9.9v2.3v2.3h-13h-13v-22.3c0-12.3,0.2-22.5,0.4-22.6c0.2-0.2,5.8-0.4,12.5-0.4h12.1L136.1,108.2L136.1,108.2z M151.3,121.2c2,8.6,4,17.1,4.3,18.8c0.3,1.8,0.8,3.2,0.9,3.2c0.2,0,0.5-1,0.7-2.2c0.2-1.2,2.3-9.6,4.8-18.8l4.4-16.6h3.2h3.2l1.6,6.7c4.3,18,6.7,28.2,6.7,29.2c0,0.6,0.3,1.3,0.5,1.4c0.3,0.2,0.5-0.1,0.5-0.7c0-1.1,3.3-14.1,6.9-27.7l2.4-9h3c1.7,0,3,0.1,3,0.3c0,0.2-11.3,40-12.5,44.1c-0.2,0.8-0.9,0.9-3.5,0.9H178l-3.2-13.1c-1.8-7.2-3.7-15.6-4.4-18.7c-0.6-3.1-1.2-5.5-1.2-5.3c-0.3,1.3-5,19.1-7.2,27.1l-2.7,10.1h-3.2H153l-0.6-2.2c-0.3-1.2-3-11.3-5.8-22.6l-5.2-20.4h3.2h3.2L151.3,121.2z"/><path fill="#000000" d="M61.1,192.6c4.1,4.1,9.6,8.6,15.6,12.5c24.1,15.9,55.7,19.2,83.3,9c12.1-4.5,24.5-12.5,33.3-21.5l3-3.1h-69.1H58.1L61.1,192.6z"/></g></g></g>
</svg>